<?xml version="1.0" encoding="utf-8"?>
<!-- Generator: Adobe Illustrator 15.0.0, SVG Export Plug-In . SVG Version: 6.00 Build 0)  -->
<!DOCTYPE svg PUBLIC "-//W3C//DTD SVG 1.1//EN" "http://www.w3.org/Graphics/SVG/1.1/DTD/svg11.dtd">
<svg version="1.1" id="图层_1" xmlns="http://www.w3.org/2000/svg" xmlns:xlink="http://www.w3.org/1999/xlink" x="0px" y="0px"
	 width="170.08px" height="170.08px" viewBox="0 0 170.08 170.08" enable-background="new 0 0 170.08 170.08" xml:space="preserve">
<linearGradient id="SVGID_1_" gradientUnits="userSpaceOnUse" x1="579.8691" y1="2583.3682" x2="579.8691" y2="2766.0354" gradientTransform="matrix(0 1 -1 0 2774.4766 -492.0703)">
	<stop  offset="0" style="stop-color:#C9D8E3"/>
	<stop  offset="0.3187" style="stop-color:#90AEC6"/>
	<stop  offset="0.7857" style="stop-color:#90AEC6"/>
	<stop  offset="0.8736" style="stop-color:#5F7996"/>
</linearGradient>
<path fill="url(#SVGID_1_)" d="M8.557,26.999v121.594c0,8.563,2.924,9.846,18.465,9.846c16.096,0,18.48-1.282,18.48-9.846V26.999
	c0-8.563-2.168-9.84-18.48-9.84C10.83,17.158,8.557,18.436,8.557,26.999z"/>
<path fill="#FFFFFF" d="M27.253,103.75c-2.219,0-4.04-1.528-4.04-3.413V35.872c0-1.89,1.821-3.423,4.04-3.423l0,0
	c2.256,0,4.054,1.533,4.054,3.423v64.465C31.307,102.222,29.509,103.75,27.253,103.75L27.253,103.75z"/>
<rect x="21.87" y="136.359" fill="#FFFFFF" width="10.787" height="9.341"/>
<path fill="#FFFFFF" d="M27.253,126.305c-3.343,0-6.053-2.349-6.053-5.26c0-2.898,2.71-5.237,6.053-5.237
	c3.365,0,6.083,2.339,6.083,5.237C33.336,123.956,30.618,126.305,27.253,126.305z"/>
<linearGradient id="SVGID_2_" gradientUnits="userSpaceOnUse" x1="579.8691" y1="2539.4932" x2="579.8691" y2="2722.1555" gradientTransform="matrix(0 1 -1 0 2774.4766 -492.0703)">
	<stop  offset="0" style="stop-color:#C9D8E3"/>
	<stop  offset="0.3187" style="stop-color:#90AEC6"/>
	<stop  offset="0.7857" style="stop-color:#90AEC6"/>
	<stop  offset="0.8736" style="stop-color:#5F7996"/>
</linearGradient>
<path fill="url(#SVGID_2_)" d="M52.437,26.999v121.594c0,8.563,2.923,9.846,18.465,9.846c16.096,0,18.479-1.282,18.479-9.846V26.999
	c0-8.563-2.166-9.84-18.479-9.84C54.709,17.158,52.437,18.436,52.437,26.999z"/>
<path fill="#FFFFFF" d="M71.133,103.75c-2.22,0-4.041-1.528-4.041-3.413V35.872c0-1.89,1.821-3.423,4.041-3.423l0,0
	c2.256,0,4.053,1.533,4.053,3.423v64.465C75.187,102.222,73.389,103.75,71.133,103.75L71.133,103.75z"/>
<rect x="65.75" y="136.359" fill="#FFFFFF" width="10.788" height="9.341"/>
<path fill="#FFFFFF" d="M71.133,126.305c-3.343,0-6.054-2.349-6.054-5.26c0-2.898,2.71-5.237,6.054-5.237
	c3.365,0,6.083,2.339,6.083,5.237C77.216,123.956,74.498,126.305,71.133,126.305z"/>
<linearGradient id="SVGID_3_" gradientUnits="userSpaceOnUse" x1="89.791" y1="2109.3438" x2="89.791" y2="2292.011" gradientTransform="matrix(0.272 0.9623 -0.9623 0.272 2292.0259 -616.9779)">
	<stop  offset="0" style="stop-color:#C9D8E3"/>
	<stop  offset="0.3187" style="stop-color:#90AEC6"/>
	<stop  offset="0.7857" style="stop-color:#90AEC6"/>
	<stop  offset="0.8736" style="stop-color:#5F7996"/>
</linearGradient>
<path fill="url(#SVGID_3_)" d="M94.421,34.315l33.073,117.009c2.329,8.242,5.491,8.68,20.446,4.453
	c15.49-4.379,17.436-6.26,15.106-14.501L129.973,24.266c-2.328-8.239-4.762-8.879-20.459-4.442
	C93.932,24.228,92.092,26.076,94.421,34.315z"/>
<path fill="#FFFFFF" d="M133.289,103.088c-2.137,0.604-4.305-0.372-4.817-2.186l-17.535-62.035
	c-0.514-1.818,0.822-3.789,2.959-4.393l0,0c2.17-0.614,4.317,0.373,4.831,2.191L136.261,98.7
	C136.774,100.515,135.459,102.474,133.289,103.088L133.289,103.088z"/>
<rect x="138.769" y="133.565" transform="matrix(0.2719 0.9623 -0.9623 0.2719 238.1536 -36.8633)" fill="#FFFFFF" width="9.34" height="10.787"/>
<path fill="#FFFFFF" d="M139.424,124.792c-3.218,0.91-6.464-0.613-7.257-3.415c-0.788-2.789,1.184-5.777,4.401-6.688
	c3.238-0.914,6.489,0.598,7.278,3.387C144.638,120.878,142.662,123.877,139.424,124.792z"/>
</svg>
